# File created by Blade
# Date/Time:  Tue Jan 27 19:54:32 2015
#---------------------------------------------------------
:version 1.10
:name HOM
:units
  mass 1.0
  length 1.000000
  angle deg
:documentation
     Acclaim Skeleton File
:root
   axis xyz
   order TX TY TZ RX RY RZ
   position 0.000000 0.000000 0.000000
   orientation 0 0 0
:bonedata
   begin
      id 1
      name Spine_dum
      direction 0.000000 1.000000 0.000000
      length 6.116652
      axis 0.0 0.0 0.0 xyz
   end
   begin
      id 2
      name LeftUpLeg_dum
      direction 1.000000 0.000000 0.000000
      length 4.711765
      axis 0.0 0.0 0.0 xyz
   end
   begin
      id 3
      name RightUpLeg_dum
      direction -1.000000 0.000000 0.000000
      length 4.711765
      axis 0.0 0.0 0.0 xyz
   end
   begin
      id 4
      name Spine
      direction 0.000000 1.000000 0.000000
      length 0.000000
      axis 0.0 0.0 0.0 xyz
      dof rx ry rz
   end
   begin
      id 5
      name Spine_dum1
      direction 0.000000 1.000000 0.000000
      length 15.225563
      axis 0.0 0.0 0.0 xyz
   end
   begin
      id 6
      name Spine_dum2
      direction 0.000000 1.000000 0.000000
      length 8.977654
      axis 0.0 0.0 0.0 xyz
   end
   begin
      id 7
      name Spine_dum3
      direction 0.000000 1.000000 0.000000
      length 8.977654
      axis 0.0 0.0 0.0 xyz
   end
   begin
      id 8
      name Head
      direction 0.000000 1.000000 0.000000
      length 4.527550
      axis 0.0 0.0 0.0 xyz
      dof rx ry rz
   end
   begin
      id 9
      name LeftShoulder
      direction 1.000000 0.000000 0.000000
      length 7.110130
      axis 0.0 0.0 -90.0 xyz
      dof rx ry rz
   end
   begin
      id 10
      name LeftArm
      direction 1.000000 0.000000 0.000000
      length 10.398341
      axis 0.0 0.0 -90.0 xyz
      dof rx ry rz
   end
   begin
      id 11
      name LeftForeArm
      direction 1.000000 0.000000 0.000000
      length 8.888997
      axis 0.0 0.0 -90.0 xyz
      dof ry rz rx
   end
   begin
      id 12
      name LeftHand
      direction 0.000000 0.000000 0.000000
      length 0.000000
      axis 0.0 0.0 -90.0 xyz
      dof rx ry rz
   end
   begin
      id 13
      name LeftHand_dum1
      direction 0.000000 0.000000 0.000000
      length 0.000000
      axis 0.0 0.0 -90.0 xyz
   end
   begin
      id 14
      name LeftHand_dum2
      direction 1.000000 0.000000 0.000000
      length 3.937000
      axis 0.0 0.0 -90.0 xyz
   end
   begin
      id 15
      name LeftHandThumb1
      direction 0.000000 0.000000 1.000000
      length 3.937000
      axis 0.0 0.0 -90.0 xyz
      dof rx rz ry
   end
   begin
      id 16
      name RightShoulder
      direction -1.000000 0.000000 0.000000
      length 7.110130
      axis 0.0 0.0 90.0 xyz
      dof rx ry rz
   end
   begin
      id 17
      name RightArm
      direction -1.000000 0.000000 0.000000
      length 10.398341
      axis 0.0 0.0 90.0 xyz
      dof rx ry rz
   end
   begin
      id 18
      name RightForeArm
      direction -1.000000 0.000000 0.000000
      length 8.888997
      axis 0.0 0.0 90.0 xyz
      dof ry rz rx
   end
   begin
      id 19
      name RightHand
      direction 0.000000 0.000000 0.000000
      length 0.000000
      axis 0.0 0.0 90.0 xyz
      dof rx ry rz
   end
   begin
      id 20
      name RightHand_dum1
      direction 0.000000 0.000000 0.000000
      length 0.000000
      axis 0.0 0.0 90.0 xyz
   end
   begin
      id 21
      name RightHand_dum2
      direction -1.000000 0.000000 0.000000
      length 3.937000
      axis 0.0 0.0 90.0 xyz
   end
   begin
      id 22
      name RightHandThumb1
      direction 0.000000 0.000000 1.000000
      length 3.937000
      axis 0.0 0.0 90.0 xyz
      dof rx rz ry
   end
   begin
      id 23
      name LeftUpLeg
      direction 0.000000 -1.000000 0.000000
      length 15.510451
      axis 0.0 0.0 0.0 xyz
      dof rx ry rz
   end
   begin
      id 24
      name LeftLeg
      direction 0.000000 -1.000000 0.000000
      length 14.858061
      axis 0.0 0.0 0.0 xyz
      dof rx ry rz
   end
   begin
      id 25
      name LeftFoot
      direction 0.000000 -0.258819 0.965926
      length 5.128852
      axis 15.0 0.0 0.0 xyz
      dof rx ry rz
   end
   begin
      id 26
      name LeftToeBase
      direction 0.000000 0.000000 1.000000
      length 2.952750
      axis 0.0 0.0 0.0 xyz
      dof rx ry rz
   end
   begin
      id 27
      name RightUpLeg
      direction 0.000000 -1.000000 0.000000
      length 15.510451
      axis 0.0 0.0 0.0 xyz
      dof rx ry rz
   end
   begin
      id 28
      name RightLeg
      direction 0.000000 -1.000000 0.000000
      length 14.858061
      axis 0.0 0.0 0.0 xyz
      dof rx ry rz
   end
   begin
      id 29
      name RightFoot
      direction 0.000000 -0.258819 0.965926
      length 5.128852
      axis 15.0 0.0 0.0 xyz
      dof rx ry rz
   end
   begin
      id 30
      name RightToeBase
      direction 0.000000 0.000000 1.000000
      length 2.952750
      axis 0.0 0.0 0.0 xyz
      dof rx ry rz
   end
:hierarchy
   begin
      root Spine_dum LeftUpLeg_dum RightUpLeg_dum
      Spine_dum Spine
      LeftUpLeg_dum LeftUpLeg
      RightUpLeg_dum RightUpLeg
      Spine Spine_dum1 Spine_dum2 Spine_dum3
      Spine_dum1 Head
      Spine_dum2 LeftShoulder
      Spine_dum3 RightShoulder
      LeftShoulder LeftArm
      LeftArm LeftForeArm
      LeftForeArm LeftHand
      LeftHand LeftHand_dum1 LeftHand_dum2
      LeftHand_dum1 LeftHandThumb1
      RightShoulder RightArm
      RightArm RightForeArm
      RightForeArm RightHand
      RightHand RightHand_dum1 RightHand_dum2
      RightHand_dum1 RightHandThumb1
      LeftUpLeg LeftLeg
      LeftLeg LeftFoot
      LeftFoot LeftToeBase
      RightUpLeg RightLeg
      RightLeg RightFoot
      RightFoot RightToeBase
   end

# File created by Blade
# Date/Time:  Tue Jan 27 19:54:25 2015
# Frame Rate: 120.000 fps
#------------------------------------------------------
:FULLY-SPECIFIED
:DEGREES
1
root 3.822178 32.301178 -0.786472 0.520186 1.543769 1.314346
Spine 2.447097 4.948507 -2.301879
Head -12.461929 -7.095248 5.729803
LeftShoulder -15.674393 2.263037 35.847414
LeftArm 5.471764 18.418659 -53.412170
LeftForeArm 10.782378 0.000000 66.779774
LeftHand 11.897373 -0.000000 -13.289121
LeftHandThumb1 -26.253704 0.000000 33.147579
RightShoulder -21.250795 -22.161738 -31.458045
RightArm 10.069209 12.819010 60.701092
RightForeArm -15.171068 -0.000000 41.133319
RightHand 14.157233 -0.000000 7.183262
RightHandThumb1 -24.326973 -0.000000 -32.862282
LeftUpLeg 5.679567 -6.417586 -5.152564
LeftLeg -0.135451 -0.000000 0.000000
LeftFoot -16.287402 16.455407 -20.845299
LeftToeBase 16.615789 -0.000000 -0.000000
RightUpLeg 4.493757 -6.188261 5.006725
RightLeg 0.010658 -0.000000 -0.000000
RightFoot -13.841369 -15.867270 15.745172
RightToeBase 11.353595 -0.000000 -0.000000
2
root 3.823220 32.299216 -0.792765 0.498146 1.632438 1.313984
Spine 2.483177 5.155491 -2.353449
Head -12.518338 -7.376392 5.942281
LeftShoulder -15.442111 2.189000 35.737637
LeftArm 5.326589 19.896982 -54.406081
LeftForeArm 10.358319 -0.000000 69.760125
LeftHand 11.330145 -0.000000 -13.594654
LeftHandThumb1 -26.253704 0.000000 33.147579
RightShoulder -21.565521 -22.474233 -30.972298
RightArm 10.011875 11.450599 61.178278
RightForeArm -15.077837 -0.000000 42.594951
RightHand 14.651344 0.000000 7.493553
RightHandThumb1 -24.326973 -0.000000 -32.862282
LeftUpLeg 5.654238 -6.454785 -5.152262
LeftLeg -0.075279 -0.000000 0.000000
LeftFoot -16.296717 16.425534 -20.803116
LeftToeBase 16.599907 -0.000000 -0.000000
RightUpLeg 4.502416 -6.226098 5.006003
RightLeg 0.029845 -0.000000 -0.000000
RightFoot -13.894533 -15.890530 15.787674
RightToeBase 11.431114 -0.000000 -0.000000
3
root 3.825098 32.298252 -0.796223 0.503162 1.737032 1.319984
Spine 2.478626 4.957912 -2.383314
Head -12.524588 -7.285809 5.997620
LeftShoulder -15.509299 2.271411 35.468095
LeftArm 5.206072 21.436111 -55.244928
LeftForeArm 9.824119 0.000000 72.567197
LeftHand 11.026464 -0.000000 -13.414980
LeftHandThumb1 -26.253704 0.000000 33.147579
RightShoulder -21.555487 -22.552089 -30.721305
RightArm 9.986727 10.291037 61.864980
RightForeArm -15.471958 -0.000000 44.101927
RightHand 14.606551 -0.000000 7.843314
RightHandThumb1 -24.326973 -0.000000 -32.862282
LeftUpLeg 5.610392 -6.587312 -5.160296
LeftLeg -0.020164 -0.000000 0.000000
LeftFoot -16.328095 16.427029 -20.830135
LeftToeBase 16.592973 -0.000000 -0.000000
RightUpLeg 4.497861 -6.281045 5.003044
RightLeg 0.029332 -0.000000 -0.000000
RightFoot -13.906181 -15.936337 15.777013
RightToeBase 11.369804 -0.000000 -0.000000
4
root 3.822351 32.297798 -0.800022 0.439611 1.791817 1.332428
Spine 2.568632 4.823357 -2.435342
Head -12.575689 -7.221337 6.096586
LeftShoulder -15.535512 2.342628 35.244708
LeftArm 5.106928 22.894226 -56.185413
LeftForeArm 9.401160 -0.000000 75.222393
LeftHand 10.848746 -0.000000 -13.529894
LeftHandThumb1 -26.253704 0.000000 33.147579
RightShoulder -21.543391 -22.667480 -30.432356
RightArm 10.046053 9.191834 62.589931
RightForeArm -15.829814 -0.000000 45.513154
RightHand 14.858184 -0.000000 8.222312
RightHandThumb1 -24.326973 -0.000000 -32.862282
LeftUpLeg 5.647523 -6.558995 -5.166679
LeftLeg 0.007233 -0.000000 -0.000000
LeftFoot -16.306020 16.366034 -20.810817
LeftToeBase 16.560321 -0.000000 -0.000000
RightUpLeg 4.552363 -6.258485 4.998133
RightLeg 0.042700 -0.000000 -0.000000
RightFoot -13.947644 -16.010945 15.776062
RightToeBase 11.414425 -0.000000 -0.000000
5
root 3.818897 32.296403 -0.806267 0.404919 1.865863 1.340067
Spine 2.623492 4.737329 -2.492835
Head -12.625386 -7.225883 6.216400
LeftShoulder -15.479815 2.378101 35.046892
LeftArm 5.021870 24.325445 -57.218989
LeftForeArm 9.260588 -0.000000 77.746931
LeftHand 10.753881 -0.000000 -13.532663
LeftHandThumb1 -26.253704 0.000000 33.147579
RightShoulder -21.644532 -22.858479 -30.077454
RightArm 10.222200 8.051283 63.326870
RightForeArm -16.369038 -0.000000 46.935139
RightHand 14.311034 -0.000000 8.082312
RightHandThumb1 -24.326973 -0.000000 -32.862282
LeftUpLeg 5.627286 -6.548600 -5.161167
LeftLeg 0.083251 -0.000000 -0.000000
LeftFoot -16.304337 16.269519 -20.791001
LeftToeBase 16.617454 -0.000000 -0.000000
RightUpLeg 4.570234 -6.253049 5.002428
RightLeg 0.064558 -0.000000 -0.000000
RightFoot -14.003101 -16.092372 15.805472
RightToeBase 11.419753 -0.000000 -0.000000
6
root 3.816379 32.294702 -0.807938 0.355966 1.936327 1.347572
Spine 2.684449 4.664780 -2.548098
Head -12.681076 -7.259333 6.331784
LeftShoulder -15.394931 2.422858 34.840032
LeftArm 4.945845 25.618752 -58.318664
LeftForeArm 9.442592 -0.000000 80.169445
LeftHand 10.874062 0.000000 -13.894674
LeftHandThumb1 -26.253704 0.000000 33.147579
RightShoulder -21.689094 -22.872269 -29.818444
RightArm 10.120238 6.917080 64.111260
RightForeArm -17.221857 -0.000000 48.269374
RightHand 14.857934 -0.000000 8.584968
RightHandThumb1 -24.326973 -0.000000 -32.862282
LeftUpLeg 5.650352 -6.528297 -5.162979
LeftLeg 0.119038 -0.000000 -0.000000
LeftFoot -16.299269 16.200766 -20.753878
LeftToeBase 16.635531 -0.000000 -0.000000
RightUpLeg 4.620208 -6.272247 5.001259
RightLeg 0.066787 -0.000000 -0.000000
RightFoot -14.037748 -16.146508 15.814539
RightToeBase 11.389148 -0.000000 -0.000000
7
root 3.815149 32.294260 -0.810284 0.339619 1.952682 1.363171
Spine 2.705512 4.569826 -2.593552
Head -12.731976 -7.220527 6.376780
LeftShoulder -15.381093 2.507256 34.551836
LeftArm 4.938267 26.863788 -59.382351
LeftForeArm 9.595736 -0.000000 82.472587
LeftHand 10.398698 -0.000000 -14.440453
LeftHandThumb1 -26.253704 0.000000 33.147579
RightShoulder -21.711878 -22.868842 -29.615156
RightArm 10.164662 5.745756 64.983969
RightForeArm -17.871227 -0.000000 49.498842
RightHand 14.611398 -0.000000 7.993511
RightHandThumb1 -24.326973 -0.000000 -32.862282
LeftUpLeg 5.657477 -6.455826 -5.172978
LeftLeg 0.123752 -0.000000 -0.000000
LeftFoot -16.255464 16.152065 -20.696530
LeftToeBase 16.590169 -0.000000 -0.000000
RightUpLeg 4.602950 -6.299773 4.993618
RightLeg 0.124813 -0.000000 -0.000000
RightFoot -14.056037 -16.169507 15.748836
RightToeBase 11.302039 -0.000000 -0.000000
8
root 3.813336 32.292435 -0.814287 0.316458 1.990498 1.366832
Spine 2.741333 4.441066 -2.627041
Head -12.793232 -7.182617 6.427581
LeftShoulder -15.393336 2.661488 34.251947
LeftArm 5.059644 27.995843 -60.472579
LeftForeArm 10.139959 -0.000000 84.570040
LeftHand 10.550600 -0.000000 -15.059313
LeftHandThumb1 -26.253704 0.000000 33.147579
RightShoulder -21.674963 -22.805306 -29.406163
RightArm 10.075976 4.574464 65.800246
RightForeArm -18.354626 -0.000000 50.789813
RightHand 14.503997 0.000000 7.897456
RightHandThumb1 -24.326973 -0.000000 -32.862282
LeftUpLeg 5.648302 -6.377777 -5.165460
LeftLeg 0.164379 -0.000000 -0.000000
LeftFoot -16.248273 16.056985 -20.654305
LeftToeBase 16.625430 -0.000000 -0.000000
RightUpLeg 4.592664 -6.383844 4.993902
RightLeg 0.181125 -0.000000 -0.000000
RightFoot -14.109564 -16.155774 15.717354
RightToeBase 11.472770 -0.000000 -0.000000
9
root 3.810002 32.290634 -0.817019 0.258638 2.050999 1.384901
Spine 2.824970 4.325851 -2.694018
Head -12.843461 -7.085352 6.449496
LeftShoulder -15.391985 2.703891 33.999481
LeftArm 5.167735 29.173394 -61.657435
LeftForeArm 10.798401 -0.000000 86.480434
LeftHand 10.277183 0.000000 -15.381097
LeftHandThumb1 -26.253704 0.000000 33.147579
RightShoulder -21.671660 -22.848049 -29.151678
RightArm 10.082294 3.567590 66.735245
RightForeArm -18.921228 -0.000000 51.979222
RightHand 14.729069 -0.000000 8.247038
RightHandThumb1 -24.326973 -0.000000 -32.862282
LeftUpLeg 5.668714 -6.330238 -5.173362
LeftLeg 0.220003 -0.000000 -0.000000
LeftFoot -16.232654 15.954921 -20.631500
LeftToeBase 16.633250 -0.000000 -0.000000
RightUpLeg 4.622155 -6.522220 4.980265
RightLeg 0.232451 -0.000000 -0.000000
RightFoot -14.107675 -16.147074 15.584885
RightToeBase 11.323948 -0.000000 -0.000000
10
root 3.807913 32.289387 -0.821805 0.231223 2.082179 1.395652
Spine 2.870551 4.256360 -2.742973
Head -12.901780 -7.042052 6.495528
LeftShoulder -15.350743 2.707869 33.736704
LeftArm 5.241069 30.279487 -62.871953
LeftForeArm 11.371495 -0.000000 88.212735
LeftHand 10.127428 -0.000000 -15.610964
LeftHandThumb1 -26.253704 0.000000 33.147579
RightShoulder -21.672517 -22.856846 -28.891646
RightArm 10.044851 2.448433 67.591890
RightForeArm -19.218663 -0.000000 53.131125
RightHand 14.754050 0.000000 8.056871
RightHandThumb1 -24.326973 -0.000000 -32.862282
LeftUpLeg 5.670506 -6.333861 -5.181269
LeftLeg 0.248410 -0.000000 -0.000000
LeftFoot -16.224425 15.944041 -20.596636
LeftToeBase 16.607787 -0.000000 -0.000000
RightUpLeg 4.613886 -6.618853 4.973161
RightLeg 0.288868 -0.000000 -0.000000
RightFoot -14.125781 -16.116618 15.534458
RightToeBase 11.328220 -0.000000 -0.000000
